# xmcd
#
# Track frame offsets:
#	150
#	24297
#	48262
#	66715
#	92897
#	113360
#	133240
#	155465
#	175357
#	195360
#
# Disc length: 2924 seconds
#
# Revision: 1
# Processed by: cddbd v1.5.1PL0 Copyright (c) Steve Scherf et al.
# Submitted via: CDmax 2.0
#
DISCID=820b6a0a
DTITLE=Terry (T.K.) Kimberly Soul - One Woman Man
DYEAR=2002
DGENRE=R and B
TTITLE0=She's Bad
TTITLE1=All the man you need
TTITLE2=Short Skirts, Tight Jeans
TTITLE3=Straight, No Chaser
TTITLE4=Meet me at the Spot
TTITLE5=Tonight we make love
TTITLE6=One woman man
TTITLE7=Missing you
TTITLE8=I'm in love
TTITLE9=My life
EXTD=
EXTT0=
EXTT1=
EXTT2=
EXTT3=
EXTT4=
EXTT5=
EXTT6=
EXTT7=
EXTT8=
EXTT9=
PLAYORDER=
